<svg xmlns:xlink="http://www.w3.org/1999/xlink" xmlns="http://www.w3.org/2000/svg" _ngcontent-app-id-c119="" class="ng-star-inserted" width="20"  height="20" ><defs><symbol viewBox="0 0 20 20" id="gauge_20_regular" xmlns="http://www.w3.org/2000/svg"><path d="M12.47 5.06a.5.5 0 0 1-.65.28 5 5 0 0 0-5.36 8.2.5.5 0 1 1-.7.7 6 6 0 0 1 6.42-9.83c.26.1.39.39.29.65zm2.47 2.47a.5.5 0 0 1 .65.29 6 6 0 0 1-1.35 6.42.5.5 0 1 1-.7-.7 5 5 0 0 0 1.12-5.36.5.5 0 0 1 .28-.65zm-.85-1.71a.5.5 0 0 0-.64-.01l-.18.14A335.17 335.17 0 0 0 9.3 9.2c-.14.12-.27.24-.34.33a1.5 1.5 0 1 0 2.28 1.95l.27-.4.38-.62a123.47 123.47 0 0 0 2.2-3.82l.12-.2a.5.5 0 0 0-.11-.62zM10 18a8 8 0 1 0 0-16 8 8 0 0 0 0 16zm0-1a7 7 0 1 1 0-14 7 7 0 0 1 0 14z"></path></symbol></defs><use _ngcontent-app-id-c119="" xlink:href="#gauge_20_regular" fill="#616161"></use></svg>