<svg xmlns:xlink="http://www.w3.org/1999/xlink" width="20" height="20" fill="none" viewBox="0 0 20 20" x="137" y="144" xmlns="http://www.w3.org/2000/svg"><path d="M6.622 17.997a.546.546 0 0 1-.539-.624c.71-4.811 4.834-8.374 9.687-8.374h.982c.67 0 1.161-.4 1.161-1.072l.056-.264v4.667a1.33 1.33 0 0 1-1.329 1.332h-.55a4.658 4.658 0 0 0-4.451 3.295l-.176.568a.667.667 0 0 1-.634.472H6.622Z" fill="url(&quot;#aha&quot;)"></path><path d="M6.622 17.997a.546.546 0 0 1-.539-.624c.71-4.811 4.834-8.374 9.687-8.374h.982c.67 0 1.161-.4 1.161-1.072l.056-.264v4.667a1.33 1.33 0 0 1-1.329 1.332h-.55a4.658 4.658 0 0 0-4.451 3.295l-.176.568a.667.667 0 0 1-.634.472H6.622Z" fill="url(&quot;#ahb&quot;)"></path><path d="M2.667 12.666A.668.668 0 0 1 2 11.998v-4c0-.367.3-.667.667-.667H14.64c.368 0 .667.3.667.668v3.999c0 .368-.3.668-.667.668H2.667Z" fill="url(&quot;#ahc&quot;)"></path><path d="M2.667 12.666A.668.668 0 0 1 2 11.998v-4c0-.367.3-.667.667-.667H14.64c.368 0 .667.3.667.668v3.999c0 .368-.3.668-.667.668H2.667Z" fill="url(&quot;#ahd&quot;)"></path><path d="M6.63 2c-.335 0-.595.3-.547.632a9.95 9.95 0 0 0 9.843 8.53h.826c.67 0 1.213.544 1.213 1.216V7.667a1.33 1.33 0 0 0-1.329-1.332h-.55a4.658 4.658 0 0 1-4.451-3.295l-.176-.568A.667.667 0 0 0 10.825 2H6.63Z" fill="url(&quot;#ahe&quot;)"></path><path opacity=".4" d="M16.636 6.331h-.551c-.946 0-1.84-.288-2.586-.792v5.32a9.948 9.948 0 0 0 2.43.303h.827c.67 0 1.213.544 1.213 1.216V7.667a1.33 1.33 0 0 0-1.33-1.332l-.003-.004Z" fill="url(&quot;#ahf&quot;)"></path><path d="M6.662 2c-.336 0-.595.3-.547.632a9.95 9.95 0 0 0 9.842 8.53h.826c.671 0 1.214.544 1.214 1.216V7.667a1.33 1.33 0 0 0-1.33-1.332h-.55a4.658 4.658 0 0 1-4.45-3.295l-.176-.568A.667.667 0 0 0 10.857 2H6.662Z" fill="url(&quot;#ahg&quot;)" opacity=".7"></path><defs><linearGradient id="aha" x1="7.017" y1="18.781" x2="18.059" y2="7.761" gradientUnits="userSpaceOnUse"><stop offset=".26" stop-color="#0D7012"></stop><stop offset="1" stop-color="#085714"></stop></linearGradient><linearGradient id="ahb" x1="23.361" y1="10.842" x2="2.411" y2="15.488" gradientUnits="userSpaceOnUse"><stop offset=".04" stop-color="#114A8A"></stop><stop offset="1" stop-color="#0C59A3" stop-opacity="0"></stop></linearGradient><linearGradient id="ahc" x1="-6.342" y1="9.998" x2="14.896" y2="9.998" gradientUnits="userSpaceOnUse"><stop stop-color="#107C10"></stop><stop offset=".96" stop-color="#56B50E"></stop></linearGradient><linearGradient id="ahe" x1="18.727" y1="15.461" x2="8.387" y2=".719" gradientUnits="userSpaceOnUse"><stop offset=".04" stop-color="#33980F"></stop><stop offset="1" stop-color="#BAE884"></stop></linearGradient><linearGradient id="ahf" x1="15.514" y1="8.959" x2="17.917" y2="8.959" gradientUnits="userSpaceOnUse"><stop stop-color="#E5FAC1" stop-opacity="0"></stop><stop offset=".56" stop-color="#E5FAC1" stop-opacity=".52"></stop><stop offset="1" stop-color="#E5FAC1"></stop></linearGradient><linearGradient id="ahg" x1="5.576" y1="-5.562" x2="11.813" y2="5.213" gradientUnits="userSpaceOnUse"><stop offset=".14" stop-color="#FDE100"></stop><stop offset=".98" stop-color="#FFC600" stop-opacity="0"></stop></linearGradient><radialGradient id="ahd" cx="0" cy="0" r="1" gradientUnits="userSpaceOnUse" gradientTransform="matrix(2.25395 -3.3825 8.61886 5.74324 12.587 9.13)"><stop stop-opacity=".3"></stop><stop offset="1" stop-opacity="0"></stop></radialGradient><linearGradient id="aha" x1="7.017" y1="18.781" x2="18.059" y2="7.761" gradientUnits="userSpaceOnUse"><stop offset=".26" stop-color="#0D7012"></stop><stop offset="1" stop-color="#085714"></stop></linearGradient><linearGradient id="ahb" x1="23.361" y1="10.842" x2="2.411" y2="15.488" gradientUnits="userSpaceOnUse"><stop offset=".04" stop-color="#114A8A"></stop><stop offset="1" stop-color="#0C59A3" stop-opacity="0"></stop></linearGradient><linearGradient id="ahc" x1="-6.342" y1="9.998" x2="14.896" y2="9.998" gradientUnits="userSpaceOnUse"><stop stop-color="#107C10"></stop><stop offset=".96" stop-color="#56B50E"></stop></linearGradient><radialGradient id="ahd" cx="0" cy="0" r="1" gradientUnits="userSpaceOnUse" gradientTransform="matrix(2.25395 -3.3825 8.61886 5.74324 12.587 9.13)"><stop stop-opacity=".3"></stop><stop offset="1" stop-opacity="0"></stop></radialGradient><linearGradient id="ahe" x1="18.727" y1="15.461" x2="8.387" y2=".719" gradientUnits="userSpaceOnUse"><stop offset=".04" stop-color="#33980F"></stop><stop offset="1" stop-color="#BAE884"></stop></linearGradient><linearGradient id="ahf" x1="15.514" y1="8.959" x2="17.917" y2="8.959" gradientUnits="userSpaceOnUse"><stop stop-color="#E5FAC1" stop-opacity="0"></stop><stop offset=".56" stop-color="#E5FAC1" stop-opacity=".52"></stop><stop offset="1" stop-color="#E5FAC1"></stop></linearGradient><linearGradient id="ahg" x1="5.576" y1="-5.562" x2="11.813" y2="5.213" gradientUnits="userSpaceOnUse"><stop offset=".14" stop-color="#FDE100"></stop><stop offset=".98" stop-color="#FFC600" stop-opacity="0"></stop></linearGradient><linearGradient id="aha" x1="7.017" y1="18.781" x2="18.059" y2="7.761" gradientUnits="userSpaceOnUse"><stop offset=".26" stop-color="#0D7012"></stop><stop offset="1" stop-color="#085714"></stop></linearGradient><linearGradient id="ahb" x1="23.361" y1="10.842" x2="2.411" y2="15.488" gradientUnits="userSpaceOnUse"><stop offset=".04" stop-color="#114A8A"></stop><stop offset="1" stop-color="#0C59A3" stop-opacity="0"></stop></linearGradient><linearGradient id="ahc" x1="-6.342" y1="9.998" x2="14.896" y2="9.998" gradientUnits="userSpaceOnUse"><stop stop-color="#107C10"></stop><stop offset=".96" stop-color="#56B50E"></stop></linearGradient><radialGradient id="ahd" cx="0" cy="0" r="1" gradientUnits="userSpaceOnUse" gradientTransform="matrix(2.25395 -3.3825 8.61886 5.74324 12.587 9.13)"><stop stop-opacity=".3"></stop><stop offset="1" stop-opacity="0"></stop></radialGradient><linearGradient id="ahe" x1="18.727" y1="15.461" x2="8.387" y2=".719" gradientUnits="userSpaceOnUse"><stop offset=".04" stop-color="#33980F"></stop><stop offset="1" stop-color="#BAE884"></stop></linearGradient><linearGradient id="ahf" x1="15.514" y1="8.959" x2="17.917" y2="8.959" gradientUnits="userSpaceOnUse"><stop stop-color="#E5FAC1" stop-opacity="0"></stop><stop offset=".56" stop-color="#E5FAC1" stop-opacity=".52"></stop><stop offset="1" stop-color="#E5FAC1"></stop></linearGradient><linearGradient id="ahg" x1="5.576" y1="-5.562" x2="11.813" y2="5.213" gradientUnits="userSpaceOnUse"><stop offset=".14" stop-color="#FDE100"></stop><stop offset=".98" stop-color="#FFC600" stop-opacity="0"></stop></linearGradient></defs></svg>