<svg xmlns:xlink="http://www.w3.org/1999/xlink" width="20" height="20" fill="none" viewBox="0 0 20 20" y="173" xmlns="http://www.w3.org/2000/svg"><path d="M15.997 17.483c1.103 0 1.999-.895 1.999-1.997V7.7a.657.657 0 0 0-.312-.563c-1.576-.974-5.487-3.386-7.342-4.532a.675.675 0 0 0-.696.012c-1.86 1.15-5.75 3.55-7.326 4.52a.668.668 0 0 0-.316.567v7.786c0 1.102.896 1.997 2 1.997H16l-.004-.004Z" fill="url(&quot;#aka&quot;)"></path><path d="M2 11.018v4.468c0 1.102.896 1.997 2 1.997h11.996c1.104 0 2-.895 2-1.997v-4.468H2Z" fill="url(&quot;#akb&quot;)"></path><path d="M4 17.483c-1.104 0-2-.895-2-1.997v-4.655c0-.244.132-.456.324-.572l5.323-3.286a.669.669 0 0 1 .703 0l5.323 3.286a.659.659 0 0 1 .324.572v4.655c0 1.102.896 1.997 2 1.997H3.998Z" fill="url(&quot;#akc&quot;)"></path><path d="M4 17.483c-1.104 0-2-.895-2-1.997v-4.655c0-.244.132-.456.324-.572l5.323-3.286a.669.669 0 0 1 .703 0l5.323 3.286a.659.659 0 0 1 .324.572v4.655c0 1.102.896 1.997 2 1.997H3.998Z" fill="url(&quot;#akd&quot;)"></path><path d="M13.997 15.486v-4.468H2v4.468c0 1.102.896 1.997 2 1.997h11.996c-1.103 0-2-.895-2-1.997Z" fill="url(&quot;#ake&quot;)"></path><path d="M4 17.483c-1.104 0-2-.895-2-1.997v-1.525c0-.24.128-.447.316-.567l3.331-2.056a.668.668 0 0 1 .704 0s1.815 1.122 3.327 2.052c.192.116.32.327.32.567v1.53c0 1.101.896 1.996 2 1.996H3.998Z" fill="url(&quot;#akf&quot;)"></path><path d="M10.33 16.588a1.985 1.985 0 0 1-.332-1.098v-1.53a.662.662 0 0 0-.32-.566c-1.512-.93-3.327-2.053-3.327-2.053a.668.668 0 0 0-.704 0l-3.331 2.057a.668.668 0 0 0-.316.567v1.525c0 .407.124.787.332 1.102h7.998v-.004Z" fill="url(&quot;#akg&quot;)"></path><defs><linearGradient id="aka" x1="9.998" y1="17.483" x2="9.998" y2="2.509" gradientUnits="userSpaceOnUse"><stop stop-color="#114A85"></stop><stop offset=".67" stop-color="#028EDB"></stop></linearGradient><linearGradient id="akb" x1="9.998" y1="18.169" x2="9.998" y2="11.705" gradientUnits="userSpaceOnUse"><stop stop-opacity=".2"></stop><stop offset=".55" stop-opacity="0"></stop></linearGradient><linearGradient id="akc" x1="8.998" y1="17.483" x2="8.998" y2="6.873" gradientUnits="userSpaceOnUse"><stop offset=".31" stop-color="#0094E5"></stop><stop offset="1" stop-color="#40D8F9"></stop></linearGradient><linearGradient id="ake" x1="8.998" y1="17.483" x2="8.998" y2="11.018" gradientUnits="userSpaceOnUse"><stop offset=".09" stop-opacity=".2"></stop><stop offset=".55" stop-opacity="0"></stop></linearGradient><linearGradient id="akf" x1="6.999" y1="17.487" x2="6.999" y2="11.238" gradientUnits="userSpaceOnUse"><stop stop-color="#3CC5EE"></stop><stop offset="1" stop-color="#50E0FF"></stop></linearGradient><linearGradient id="akg" x1="6.163" y1="15.626" x2="6.163" y2="10.275" gradientUnits="userSpaceOnUse"><stop stop-color="#A1ECFF" stop-opacity="0"></stop><stop offset=".9" stop-color="#A1ECFF" stop-opacity=".9"></stop></linearGradient><radialGradient id="akd" cx="0" cy="0" r="1" gradientUnits="userSpaceOnUse" gradientTransform="matrix(5.87449 0 0 5.8656 6.31 16.101)"><stop stop-opacity=".3"></stop><stop offset="1" stop-opacity="0"></stop></radialGradient><linearGradient id="aka" x1="9.998" y1="17.483" x2="9.998" y2="2.509" gradientUnits="userSpaceOnUse"><stop stop-color="#114A85"></stop><stop offset=".67" stop-color="#028EDB"></stop></linearGradient><linearGradient id="akb" x1="9.998" y1="18.169" x2="9.998" y2="11.705" gradientUnits="userSpaceOnUse"><stop stop-opacity=".2"></stop><stop offset=".55" stop-opacity="0"></stop></linearGradient><linearGradient id="akc" x1="8.998" y1="17.483" x2="8.998" y2="6.873" gradientUnits="userSpaceOnUse"><stop offset=".31" stop-color="#0094E5"></stop><stop offset="1" stop-color="#40D8F9"></stop></linearGradient><radialGradient id="akd" cx="0" cy="0" r="1" gradientUnits="userSpaceOnUse" gradientTransform="matrix(5.87449 0 0 5.8656 6.31 16.101)"><stop stop-opacity=".3"></stop><stop offset="1" stop-opacity="0"></stop></radialGradient><linearGradient id="ake" x1="8.998" y1="17.483" x2="8.998" y2="11.018" gradientUnits="userSpaceOnUse"><stop offset=".09" stop-opacity=".2"></stop><stop offset=".55" stop-opacity="0"></stop></linearGradient><linearGradient id="akf" x1="6.999" y1="17.487" x2="6.999" y2="11.238" gradientUnits="userSpaceOnUse"><stop stop-color="#3CC5EE"></stop><stop offset="1" stop-color="#50E0FF"></stop></linearGradient><linearGradient id="akg" x1="6.163" y1="15.626" x2="6.163" y2="10.275" gradientUnits="userSpaceOnUse"><stop stop-color="#A1ECFF" stop-opacity="0"></stop><stop offset=".9" stop-color="#A1ECFF" stop-opacity=".9"></stop></linearGradient><linearGradient id="aka" x1="9.998" y1="17.483" x2="9.998" y2="2.509" gradientUnits="userSpaceOnUse"><stop stop-color="#114A85"></stop><stop offset=".67" stop-color="#028EDB"></stop></linearGradient><linearGradient id="akb" x1="9.998" y1="18.169" x2="9.998" y2="11.705" gradientUnits="userSpaceOnUse"><stop stop-opacity=".2"></stop><stop offset=".55" stop-opacity="0"></stop></linearGradient><linearGradient id="akc" x1="8.998" y1="17.483" x2="8.998" y2="6.873" gradientUnits="userSpaceOnUse"><stop offset=".31" stop-color="#0094E5"></stop><stop offset="1" stop-color="#40D8F9"></stop></linearGradient><radialGradient id="akd" cx="0" cy="0" r="1" gradientUnits="userSpaceOnUse" gradientTransform="matrix(5.87449 0 0 5.8656 6.31 16.101)"><stop stop-opacity=".3"></stop><stop offset="1" stop-opacity="0"></stop></radialGradient><linearGradient id="ake" x1="8.998" y1="17.483" x2="8.998" y2="11.018" gradientUnits="userSpaceOnUse"><stop offset=".09" stop-opacity=".2"></stop><stop offset=".55" stop-opacity="0"></stop></linearGradient><linearGradient id="akf" x1="6.999" y1="17.487" x2="6.999" y2="11.238" gradientUnits="userSpaceOnUse"><stop stop-color="#3CC5EE"></stop><stop offset="1" stop-color="#50E0FF"></stop></linearGradient><linearGradient id="akg" x1="6.163" y1="15.626" x2="6.163" y2="10.275" gradientUnits="userSpaceOnUse"><stop stop-color="#A1ECFF" stop-opacity="0"></stop><stop offset=".9" stop-color="#A1ECFF" stop-opacity=".9"></stop></linearGradient></defs></svg>