<svg xmlns:xlink="http://www.w3.org/1999/xlink" xmlns="http://www.w3.org/2000/svg" _ngcontent-app-id-c119="" class="ng-star-inserted" width="32"  height="32" ><defs><symbol viewBox="0 0 24 24" id="branch_fork_24_regular" xmlns="http://www.w3.org/2000/svg"><path d="M11 5.5a3.5 3.5 0 0 1-3 3.46v2.54h6.25c1.24 0 2.25-1 2.25-2.25v-.4a3.5 3.5 0 1 1 1.5.11v.29A3.75 3.75 0 0 1 14.25 13H8v2.04a3.5 3.5 0 1 1-1.5.1V8.86A3.5 3.5 0 1 1 11 5.5zm-3.5 2a2 2 0 1 0 0-4 2 2 0 0 0 0 4zm10 0a2 2 0 1 0 0-4 2 2 0 0 0 0 4zm-8 11a2 2 0 1 0-4 0 2 2 0 0 0 4 0z"></path></symbol></defs><use _ngcontent-app-id-c119="" xlink:href="#branch_fork_24_regular"></use></svg>