<svg xmlns:xlink="http://www.w3.org/1999/xlink" width="32" height="32" fill="none" viewBox="0 0 32 32" x="192" y="64" xmlns="http://www.w3.org/2000/svg"><g clip-path="url(#aoa)" fill="none"><path d="M14.746 21.986c3.842-2.218 5.107-7.222 2.825-11.175-2.283-3.953-7.248-5.36-11.09-3.141-3.843 2.218-5.108 7.222-2.825 11.175 2.282 3.953 7.247 5.36 11.09 3.141Z" fill="url(&quot;#aob&quot;)"></path><path d="M19.762 10.903c1.995-1.995 1.947-5.277-.107-7.33-2.053-2.053-5.335-2.1-7.33-.104s-1.948 5.278.106 7.33c2.054 2.054 5.336 2.1 7.33.104Z" fill="url(&quot;#aoc&quot;)"></path><path d="M17.609 29.464c6.644 0 12.03-5.386 12.03-12.03 0-6.644-5.386-12.03-12.03-12.03-6.644 0-12.03 5.386-12.03 12.03 0 6.644 5.386 12.03 12.03 12.03Z" fill="url(&quot;#aod&quot;)"></path><path fill-rule="evenodd" clip-rule="evenodd" d="M12.896 2.97c-7.063 4.363-9.53 13.552-5.472 20.9.273.499.57.976.891 1.429l.315.048 6.98 2.33 6.63-4.442c-1.11.034-5.728-2.586-8.746-8.314-3.782-7.176-2.223-10.492-.591-11.95h-.007Z" fill="url(&quot;#aoe&quot;)"></path><path fill-rule="evenodd" clip-rule="evenodd" d="M12.896 2.97c-7.063 4.363-9.53 13.552-5.472 20.9.273.499.57.976.891 1.429l.315.048 6.98 2.33 6.63-4.442c-1.11.034-5.728-2.586-8.746-8.314-3.782-7.176-2.223-10.492-.591-11.95h-.007Z" fill="url(&quot;#aof&quot;)" fill-opacity="0.2"></path><path fill-rule="evenodd" clip-rule="evenodd" d="M26.759 25.247a12.073 12.073 0 0 0 2.548-4.978c-1.196-3.416-6.008-4.377-8.642-1.705-2.023 2.05-4.124 3.772-5.704 4.08C5.824 24.437 1.946 16.86 2.606 13.44a13.862 13.862 0 0 0 .034 5.414C4.18 26.39 11.532 31.25 19.067 29.713a13.876 13.876 0 0 0 6.112-2.928s.028-.021.038-.031a13.845 13.845 0 0 0 1.542-1.511v.004Z" fill="url(&quot;#aog&quot;)"></path></g><defs><radialGradient id="aod" cx="0" cy="0" r="1" gradientUnits="userSpaceOnUse" gradientTransform="rotate(134.83 12.52 5.064) scale(18.1322 23.3919)"><stop offset=".39" stop-color="#028FDC"></stop><stop offset=".59" stop-color="#0078D4"></stop><stop offset="1" stop-color="#1A508B"></stop></radialGradient><radialGradient id="aoe" cx="0" cy="0" r="1" gradientUnits="userSpaceOnUse" gradientTransform="rotate(139.44 8.59 9.18) scale(16.3171 20.1329)"><stop offset=".46" stop-color="#40D9FA"></stop><stop offset=".9" stop-color="#0095E6"></stop></radialGradient><radialGradient id="aof" cx="0" cy="0" r="1" gradientUnits="userSpaceOnUse" gradientTransform="matrix(-1.85792 17.21433 -12.2258 -1.31951 12.083 7.086)"><stop offset=".77" stop-opacity="0"></stop><stop offset="1"></stop></radialGradient><radialGradient id="aog" cx="0" cy="0" r="1" gradientUnits="userSpaceOnUse" gradientTransform="rotate(85.97 -.494 20.846) scale(26.9434 49.1305)"><stop offset=".1" stop-color="#BDF5FF"></stop><stop offset=".47" stop-color="#40D9FA"></stop></radialGradient><linearGradient id="aob" x1="26.861" y1="11.084" x2="2.308" y2="16.745" gradientUnits="userSpaceOnUse"><stop offset=".2" stop-color="#028FDC"></stop><stop offset=".51" stop-color="#0078D4"></stop><stop offset="1" stop-color="#0B315B"></stop></linearGradient><linearGradient id="aoc" x1="28.602" y1="18.695" x2="12.381" y2="3.828" gradientUnits="userSpaceOnUse"><stop offset=".04" stop-color="#028FDC"></stop><stop offset=".46" stop-color="#0078D4"></stop><stop offset="1" stop-color="#0B315B"></stop></linearGradient><clipPath id="aoa"><path fill="#fff" d="M0 0h32v32H0z"></path></clipPath><linearGradient id="aob" x1="26.861" y1="11.084" x2="2.308" y2="16.745" gradientUnits="userSpaceOnUse"><stop offset=".2" stop-color="#028FDC"></stop><stop offset=".51" stop-color="#0078D4"></stop><stop offset="1" stop-color="#0B315B"></stop></linearGradient><linearGradient id="aoc" x1="28.602" y1="18.695" x2="12.381" y2="3.828" gradientUnits="userSpaceOnUse"><stop offset=".04" stop-color="#028FDC"></stop><stop offset=".46" stop-color="#0078D4"></stop><stop offset="1" stop-color="#0B315B"></stop></linearGradient><radialGradient id="aod" cx="0" cy="0" r="1" gradientUnits="userSpaceOnUse" gradientTransform="rotate(134.83 12.52 5.064) scale(18.1322 23.3919)"><stop offset=".39" stop-color="#028FDC"></stop><stop offset=".59" stop-color="#0078D4"></stop><stop offset="1" stop-color="#1A508B"></stop></radialGradient><radialGradient id="aoe" cx="0" cy="0" r="1" gradientUnits="userSpaceOnUse" gradientTransform="rotate(139.44 8.59 9.18) scale(16.3171 20.1329)"><stop offset=".46" stop-color="#40D9FA"></stop><stop offset=".9" stop-color="#0095E6"></stop></radialGradient><radialGradient id="aof" cx="0" cy="0" r="1" gradientUnits="userSpaceOnUse" gradientTransform="matrix(-1.85792 17.21433 -12.2258 -1.31951 12.083 7.086)"><stop offset=".77" stop-opacity="0"></stop><stop offset="1"></stop></radialGradient><radialGradient id="aog" cx="0" cy="0" r="1" gradientUnits="userSpaceOnUse" gradientTransform="rotate(85.97 -.494 20.846) scale(26.9434 49.1305)"><stop offset=".1" stop-color="#BDF5FF"></stop><stop offset=".47" stop-color="#40D9FA"></stop></radialGradient><linearGradient id="aob" x1="26.861" y1="11.084" x2="2.308" y2="16.745" gradientUnits="userSpaceOnUse"><stop offset=".2" stop-color="#028FDC"></stop><stop offset=".51" stop-color="#0078D4"></stop><stop offset="1" stop-color="#0B315B"></stop></linearGradient><linearGradient id="aoc" x1="28.602" y1="18.695" x2="12.381" y2="3.828" gradientUnits="userSpaceOnUse"><stop offset=".04" stop-color="#028FDC"></stop><stop offset=".46" stop-color="#0078D4"></stop><stop offset="1" stop-color="#0B315B"></stop></linearGradient><radialGradient id="aod" cx="0" cy="0" r="1" gradientUnits="userSpaceOnUse" gradientTransform="rotate(134.83 12.52 5.064) scale(18.1322 23.3919)"><stop offset=".39" stop-color="#028FDC"></stop><stop offset=".59" stop-color="#0078D4"></stop><stop offset="1" stop-color="#1A508B"></stop></radialGradient><radialGradient id="aoe" cx="0" cy="0" r="1" gradientUnits="userSpaceOnUse" gradientTransform="rotate(139.44 8.59 9.18) scale(16.3171 20.1329)"><stop offset=".46" stop-color="#40D9FA"></stop><stop offset=".9" stop-color="#0095E6"></stop></radialGradient><radialGradient id="aof" cx="0" cy="0" r="1" gradientUnits="userSpaceOnUse" gradientTransform="matrix(-1.85792 17.21433 -12.2258 -1.31951 12.083 7.086)"><stop offset=".77" stop-opacity="0"></stop><stop offset="1"></stop></radialGradient><radialGradient id="aog" cx="0" cy="0" r="1" gradientUnits="userSpaceOnUse" gradientTransform="rotate(85.97 -.494 20.846) scale(26.9434 49.1305)"><stop offset=".1" stop-color="#BDF5FF"></stop><stop offset=".47" stop-color="#40D9FA"></stop></radialGradient></defs></svg>