<svg xmlns:xlink="http://www.w3.org/1999/xlink" width="20" height="20" fill="none" viewBox="0 0 20 20" x="20" y="173" xmlns="http://www.w3.org/2000/svg"><g clip-path="url(#aqa)" fill="none"><mask id="aqb" style="mask-type:alpha" maskUnits="userSpaceOnUse" x="2" y="0" width="16" height="20" fill="none"><path d="M10.833.833A.833.833 0 0 1 11.667 0h5a.833.833 0 0 1 .833.833v18.334a.833.833 0 0 1-.833.833H3.333a.833.833 0 0 1-.833-.833v-8.334A.833.833 0 0 1 3.333 10h3.334V5.833A.833.833 0 0 1 7.5 5h3.333V.833Z" fill="#FFFFFF"></path></mask><g mask="url(#aqb)" fill="none"><path d="M17.5 0v20h-6.667V0H17.5Z" fill="url(&quot;#aqc&quot;)"></path><g filter="url(#aqd)" fill="none"><path d="M13.333 5.917v14.166H6.667v-15H12.5a.833.833 0 0 1 .833.834Z" fill="#000" fill-opacity="0.2"></path></g><g filter="url(#aqe)" fill="none"><path d="M13.333 6.25v14.167H6.667v-15H12.5a.833.833 0 0 1 .833.833Z" fill="#000" fill-opacity="0.18"></path></g><path d="M13.333 5.833V20H6.667V5H12.5a.833.833 0 0 1 .833.833Z" fill="url(&quot;#aqf&quot;)"></path><path d="M2.5 10v10h6.667v-9.167A.833.833 0 0 0 8.333 10H2.5Z" fill="url(&quot;#aqg&quot;)"></path></g></g><defs><linearGradient id="aqc" x1="9.722" y1="0" x2="18.514" y2="18.635" gradientUnits="userSpaceOnUse"><stop stop-color="#E6AD10"></stop><stop offset="1" stop-color="#C87E0E"></stop></linearGradient><linearGradient id="aqf" x1="6.666" y1="5" x2="14.06" y2="19.339" gradientUnits="userSpaceOnUse"><stop stop-color="#F6D751"></stop><stop offset="1" stop-color="#E6AD10"></stop></linearGradient><linearGradient id="aqg" x1="2.499" y1="10" x2="6.585" y2="19.683" gradientUnits="userSpaceOnUse"><stop stop-color="#F9E589"></stop><stop offset="1" stop-color="#F6D751"></stop></linearGradient><filter id="aqd" x="6.267" y="4.683" width="7.467" height="15.8" filterUnits="userSpaceOnUse" color-interpolation-filters="sRGB"><feFlood flood-opacity="0" result="BackgroundImageFix"></feFlood><feBlend in="SourceGraphic" in2="BackgroundImageFix" result="shape"></feBlend><feGaussianBlur stdDeviation=".2" result="effect1_foregroundBlur_2135_196676"></feGaussianBlur></filter><filter id="aqe" x="2.667" y="1.417" width="14.667" height="23" filterUnits="userSpaceOnUse" color-interpolation-filters="sRGB"><feFlood flood-opacity="0" result="BackgroundImageFix"></feFlood><feBlend in="SourceGraphic" in2="BackgroundImageFix" result="shape"></feBlend><feGaussianBlur stdDeviation="2" result="effect1_foregroundBlur_2135_196676"></feGaussianBlur></filter><clipPath id="aqa"><path fill="#fff" d="M0 0h20v20H0z"></path></clipPath><linearGradient id="aqc" x1="9.722" y1="0" x2="18.514" y2="18.635" gradientUnits="userSpaceOnUse"><stop stop-color="#E6AD10"></stop><stop offset="1" stop-color="#C87E0E"></stop></linearGradient><linearGradient id="aqf" x1="6.666" y1="5" x2="14.06" y2="19.339" gradientUnits="userSpaceOnUse"><stop stop-color="#F6D751"></stop><stop offset="1" stop-color="#E6AD10"></stop></linearGradient><linearGradient id="aqg" x1="2.499" y1="10" x2="6.585" y2="19.683" gradientUnits="userSpaceOnUse"><stop stop-color="#F9E589"></stop><stop offset="1" stop-color="#F6D751"></stop></linearGradient><linearGradient id="aqc" x1="9.722" y1="0" x2="18.514" y2="18.635" gradientUnits="userSpaceOnUse"><stop stop-color="#E6AD10"></stop><stop offset="1" stop-color="#C87E0E"></stop></linearGradient><linearGradient id="aqf" x1="6.666" y1="5" x2="14.06" y2="19.339" gradientUnits="userSpaceOnUse"><stop stop-color="#F6D751"></stop><stop offset="1" stop-color="#E6AD10"></stop></linearGradient><linearGradient id="aqg" x1="2.499" y1="10" x2="6.585" y2="19.683" gradientUnits="userSpaceOnUse"><stop stop-color="#F9E589"></stop><stop offset="1" stop-color="#F6D751"></stop></linearGradient></defs></svg>