<svg xmlns:xlink="http://www.w3.org/1999/xlink" xmlns="http://www.w3.org/2000/svg" _ngcontent-app-id-c119="" class="ng-star-inserted" width="20"  height="20" ><defs><symbol viewBox="0 0 20 20" id="data_bar_vertical_20_regular" xmlns="http://www.w3.org/2000/svg"><path d="M5 3a2 2 0 0 0-2 2v10a2 2 0 1 0 4 0V5a2 2 0 0 0-2-2zM4 5a1 1 0 0 1 2 0v10a1 1 0 1 1-2 0V5zm4 3a2 2 0 1 1 4 0v7a2 2 0 1 1-4 0V8zm2-1a1 1 0 0 0-1 1v7a1 1 0 1 0 2 0V8a1 1 0 0 0-1-1zm3 4a2 2 0 1 1 4 0v4a2 2 0 1 1-4 0v-4zm2-1a1 1 0 0 0-1 1v4a1 1 0 1 0 2 0v-4a1 1 0 0 0-1-1z"></path></symbol></defs><use _ngcontent-app-id-c119="" xlink:href="#data_bar_vertical_20_regular" fill="#616161"></use></svg>