<svg xmlns:xlink="http://www.w3.org/1999/xlink" xmlns="http://www.w3.org/2000/svg" _ngcontent-app-id-c119="" class="ng-star-inserted" width="20"  height="20" ><defs><symbol viewBox="0 0 20 20" id="streaming_dataflow_20" xmlns="http://www.w3.org/2000/svg"><path d="M9 5a3 3 0 10-3.5 2.959v4.082a3 3 0 101 0V11h3.592a1.29 1.29 0 01.308-.5c.3-.3.6-.5 1-.5H6.5V7.959A3 3 0 009 5zM6 7a2 2 0 110-4 2 2 0 010 4zm0 10a2 2 0 110-4 2 2 0 010 4zM14.5 8.5c0 .662-.257 1.264-.677 1.71A7.95 7.95 0 0012 10a1.5 1.5 0 001.5-1.5v-.541a3 3 0 111 0V8.5zM16 5a2 2 0 10-4 0 2 2 0 004 0zM11.462 11.02a7 7 0 017.518 7.518.5.5 0 11-.997-.076 6 6 0 00-6.445-6.445.5.5 0 11-.076-.997z"></path><path d="M11.445 13.03a5 5 0 015.524 5.524.5.5 0 11-.993-.109 4 4 0 00-4.42-4.42.5.5 0 11-.11-.995z"></path><path d="M11.4 15.06a3 3 0 013.54 3.54.5.5 0 01-.98-.2 2 2 0 00-2.36-2.36.5.5 0 11-.2-.98z"></path><path d="M12 19a1 1 0 100-2 1 1 0 000 2z"></path></symbol></defs><use _ngcontent-app-id-c119="" xlink:href="#streaming_dataflow_20" fill="#424242"></use></svg>