<svg xmlns:xlink="http://www.w3.org/1999/xlink" xmlns="http://www.w3.org/2000/svg" _ngcontent-app-id-c119="" class="ng-star-inserted" width="20"  height="20" ><defs><symbol viewBox="0 0 20 20" id="streaming_dataset_20" xmlns="http://www.w3.org/2000/svg"><path d="M14.5 3A2.5 2.5 0 0117 5.5v6.267a8.06 8.06 0 00-1-.688V5.5A1.5 1.5 0 0014.5 4h-9A1.5 1.5 0 004 5.5v9A1.5 1.5 0 005.5 16h4.537c.107.265.285.522.463.7a1.51 1.51 0 00-.23.3H5.5A2.5 2.5 0 013 14.5v-9A2.5 2.5 0 015.5 3h9z"></path><path d="M10 11c.03 0 .06.001.09.004-.064.19-.09.393-.09.596 0 .4.2.7.4.9a1.265 1.265 0 00-.29.494A1 1 0 1110 11zM8 12a1 1 0 10-2 0 1 1 0 002 0zM7 7a1 1 0 110 2 1 1 0 010-2zM11 8a1 1 0 10-2 0 1 1 0 002 0zM13 7a1 1 0 110 2 1 1 0 010-2zM11.462 11.02a7 7 0 017.518 7.518.5.5 0 11-.997-.076 6 6 0 00-6.445-6.445.5.5 0 11-.076-.997z"></path><path d="M11.445 13.03a5 5 0 015.524 5.524.5.5 0 11-.993-.109 4 4 0 00-4.42-4.42.5.5 0 11-.11-.995z"></path><path d="M11.4 15.06a3 3 0 013.54 3.54.5.5 0 01-.98-.2 2 2 0 00-2.36-2.36.5.5 0 11-.2-.98z"></path><path d="M12 19a1 1 0 100-2 1 1 0 000 2z"></path></symbol></defs><use _ngcontent-app-id-c119="" xlink:href="#streaming_dataset_20" fill="#424242"></use></svg>