<svg id="Capa_1" enable-background="new 0 0 511.953 511.953" height="512" viewBox="0 0 511.953 511.953" width="512" xmlns="http://www.w3.org/2000/svg"><g><g><g><path d="m49.476 296.469h139.479c4.142 0 7.5-3.357 7.5-7.5s-3.358-7.5-7.5-7.5h-139.479c-4.142 0-7.5 3.357-7.5 7.5s3.358 7.5 7.5 7.5z"/><path d="m49.476 329.659h139.479c4.142 0 7.5-3.357 7.5-7.5s-3.358-7.5-7.5-7.5h-139.479c-4.142 0-7.5 3.357-7.5 7.5s3.358 7.5 7.5 7.5z"/><path d="m49.476 195.036c-4.142 0-7.5 3.357-7.5 7.5v38.811c0 11.734 9.546 21.281 21.281 21.281h111.917c11.734 0 21.281-9.547 21.281-21.281v-109.026c0-11.734-9.547-21.281-21.281-21.281h-111.917c-11.734 0-21.281 9.547-21.281 21.281v35.153c0 4.143 3.358 7.5 7.5 7.5s7.5-3.357 7.5-7.5v-35.153c0-3.464 2.817-6.281 6.281-6.281h111.917c3.463 0 6.281 2.817 6.281 6.281v109.026c0 3.464-2.818 6.281-6.281 6.281h-5.181v-7.052c0-17.005-8.393-32.539-22.034-41.88 3.938-5.719 6.09-12.536 6.09-19.712 0-19.207-15.626-34.833-34.833-34.833s-34.833 15.626-34.833 34.833c0 7.176 2.151 13.992 6.09 19.712-13.642 9.341-22.034 24.875-22.034 41.88v7.052h-5.181c-3.463 0-6.281-2.817-6.281-6.281v-38.811c-.001-4.142-3.359-7.5-7.501-7.5zm69.74-35.884c10.936 0 19.833 8.897 19.833 19.833 0 6.177-2.802 11.889-7.687 15.68-.026.02-.051.04-.077.059-3.486 2.679-7.659 4.094-12.069 4.094-4.408 0-8.577-1.413-12.062-4.088-.029-.023-.058-.045-.087-.068-4.884-3.792-7.684-9.503-7.684-15.678-.001-10.935 8.897-19.832 19.833-19.832zm-35.778 81.424c0-13.171 7.145-25.089 18.493-31.338 5.237 3.009 11.13 4.58 17.285 4.58s12.048-1.572 17.285-4.58c11.348 6.249 18.493 18.167 18.493 31.338v7.052h-71.556z"/><path d="m478.8 124.641v-26.569c0-15.995-13.013-29.009-29.008-29.009h-420.784c-15.995 0-29.008 13.013-29.008 29.009v264.92c0 15.995 13.013 29.008 29.008 29.008h116.764c4.142 0 7.5-3.357 7.5-7.5s-3.358-7.5-7.5-7.5h-116.764c-7.724 0-14.008-6.284-14.008-14.008v-264.92c0-7.725 6.284-14.009 14.008-14.009h420.784c7.724 0 14.008 6.284 14.008 14.009v15.447c-38.486-23.288-89.128-18.187-122.193 14.878-23.91 23.91-33.875 57.934-27.227 90.559-5.66.244-11.247 2.521-15.559 6.832v.001c-9.011 9.013-9.138 23.597-.381 32.764l-123.618 123.618c-4.117 4.117-6.4 9.592-6.429 15.415l-.12 24.597c-.056 11.456 9.206 20.707 20.604 20.707h.103l24.597-.121c5.822-.028 11.297-2.312 15.415-6.429l3.983-3.982c3.651-3.651 5.627-8.705 5.422-13.864l-.564-14.194c-.085-2.119 1.682-3.834 3.802-3.697l13.224.892c5.347.354 10.588-1.606 14.376-5.396 3.054-3.216 5.065-4.575 6.949-7.909 1.699-3.008 2.525-6.42 2.388-9.869l-.564-14.194c-.085-2.119 1.691-3.843 3.802-3.697l13.224.892c5.344.344 10.587-1.606 14.376-5.396l3.978-3.978c3.651-3.651 5.627-8.705 5.422-13.864l-.564-14.194c-.085-2.129 1.704-3.846 3.802-3.697l13.223.892c5.35.356 10.588-1.607 14.376-5.396l3.062-3.062c9.085 7.274 22.565 6.878 31.197-1.754 3.916-3.917 6.276-8.973 6.769-14.422 24.864 5.438 51.21 1.161 73.127-12.039v78.582c0 7.724-6.284 14.008-14.008 14.008h-145.904c-4.142 0-7.5 3.357-7.5 7.5s3.358 7.5 7.5 7.5h145.902c15.995 0 29.008-13.013 29.008-29.008v-89.681c44.198-39.681 44.209-108.985 0-148.672zm-142.523 181.475-13.222-.892c-11.036-.719-20.238 8.243-19.8 19.26l.564 14.194c.04.991-.34 1.962-1.041 2.662l-3.978 3.978c-.727.728-1.723 1.106-2.76 1.035l-13.224-.892c-11.041-.731-20.236 8.264-19.799 19.26l.564 14.194c.04 1.007-.352 1.974-1.041 2.662l-3.915 3.914c-.727.728-1.726 1.109-2.76 1.035l-13.224-.892c-11.045-.719-20.237 8.25-19.799 19.26l.564 14.194c.04.991-.34 1.962-1.041 2.662l-3.982 3.981c-1.305 1.304-3.038 2.027-4.883 2.036l-24.596.121h-.028c-3.099 0-5.621-2.514-5.606-5.634l.12-24.597c.009-1.844.732-3.578 2.036-4.882l123.613-123.613 32.956 32.956-2.96 2.96c-.725.73-1.731 1.115-2.758 1.038zm37.02-5.852c-3.293 3.293-8.65 3.293-11.943 0l-51.927-51.928c-3.292-3.292-3.292-8.648 0-11.942 3.291-3.291 8.647-3.291 11.94-.001.016.016.032.031.048.047l51.882 51.883c3.293 3.292 3.293 8.649 0 11.941zm12.23-20.752c-1.179-1.446-53.852-54.02-53.955-54.118-9.851-30.168-1.841-63.909 20.641-86.39 31.251-31.251 80.915-33.064 114.278-5.184 40.581 33.887 40.644 96.285.049 130.271-.02.017-.04.033-.06.05-22.361 18.677-53.253 24.512-80.953 15.371z"/><path d="m459.359 151.803c-12.291-12.291-32.322-12.339-44.666 0-12.722 12.721-12.331 33.581 1.177 45.784 12.441 11.235 31.615 10.756 43.489-1.118 0 0 0 0 0-.001 12.342-12.341 12.344-32.322 0-44.665zm-33.748 34.363c-.002-.002-.004-.003-.005-.005-.042-.04-.084-.081-.126-.122-.01-.01-.019-.019-.029-.028-.05-.049-.1-.099-.15-.148-6.48-6.482-6.482-16.97 0-23.452 6.464-6.465 16.987-6.467 23.453 0 6.481 6.481 6.481 16.97 0 23.451-6.365 6.362-16.655 6.465-23.143.304z"/></g></g></g></svg>