<svg xmlns="http://www.w3.org/2000/svg" viewBox="0 0 2048 2048"><path d="M831.88 1638.4L128.72 1638.4L128.72 137.216L1281.44 137.216L1281.44 546.816L1323.71 532.48Q1344.84 526.336 1365.97 522.24L1408.24 516.096L1408.24 0L0 0L0 1775.62L914.492 1775.62Q891.437 1740.8 870.304 1708.03Q849.171 1675.26 831.88 1638.4ZM384.24 546.816L384.24 409.6L255.52 409.6L255.52 546.816L384.24 546.816ZM1152.72 546.816L1152.72 409.6L512.961 409.6L512.961 546.816L1152.72 546.816ZM2049.92 1228.8L2049.92 819.2L1948.1 817.152Q1903.91 817.152 1862.6 809.984Q1821.3 802.816 1779.99 788.48Q1738.69 774.144 1686.81 745.472Q1659.92 731.136 1634.94 718.848Q1609.97 706.56 1584.03 698.368Q1558.09 690.176 1531.2 686.08Q1504.3 681.984 1472.6 681.984Q1440.9 681.984 1414 686.08Q1387.11 690.176 1361.17 698.368Q1335.23 706.56 1310.26 718.848L1258.39 745.472Q1208.44 774.144 1166.17 788.48Q1123.9 802.816 1083.56 809.984Q1043.21 817.152 997.103 817.152L897.201 819.2L897.201 1228.8Q897.201 1368.06 945.231 1490.94Q993.261 1613.82 1073.95 1716.22Q1154.64 1818.62 1258.39 1900.54Q1362.13 1982.46 1473.56 2037.76Q1583.07 1982.46 1686.81 1900.54Q1790.56 1818.62 1871.25 1715.2Q1951.94 1611.78 2000.93 1489.92Q2049.92 1368.06 2049.92 1228.8ZM384.24 956.416L384.24 819.2L255.52 819.2L255.52 956.416L384.24 956.416ZM768.48 956.416L768.48 819.2L512.961 819.2L512.961 956.416L768.48 956.416ZM1921.2 954.368L1921.2 1228.8Q1921.2 1339.39 1882.78 1436.67Q1844.35 1533.95 1781.91 1616.9Q1719.47 1699.84 1638.78 1767.42Q1558.09 1835.01 1473.56 1886.21Q1389.03 1837.06 1308.34 1769.47Q1227.65 1701.89 1164.25 1617.92Q1100.85 1533.95 1062.42 1435.65Q1024 1337.34 1024 1228.8L1024 954.368Q1068.19 950.272 1104.69 944.128Q1141.19 937.984 1176.74 927.744Q1212.28 917.504 1245.9 903.168Q1279.52 888.832 1317.94 866.304L1356.37 847.872Q1373.66 837.632 1391.91 831.488Q1410.16 825.344 1429.37 822.272Q1448.59 819.2 1472.6 819.2Q1496.62 819.2 1515.83 822.272Q1535.04 825.344 1553.29 831.488Q1571.54 837.632 1588.83 846.848Q1606.12 856.064 1627.26 866.304Q1665.68 888.832 1700.26 903.168Q1734.84 917.504 1769.43 927.744Q1804.01 937.984 1841.47 944.128Q1878.93 950.272 1921.2 954.368ZM255.52 1228.8L255.52 1366.02L384.24 1366.02L384.24 1228.8L255.52 1228.8ZM512.961 1228.8L512.961 1366.02L768.48 1366.02L768.48 1228.8L512.961 1228.8Z"/></svg>