<svg xmlns="http://www.w3.org/2000/svg" viewBox="0 0 2048 2048"><path d="M2048 1406.98L2048 512Q2048 485.376 2037.76 461.824Q2027.52 438.272 2010.11 420.864Q1992.7 403.456 1970.18 393.216Q1947.65 382.976 1921.02 385.024L1216.51 385.024Q1187.84 385.024 1168.38 377.856Q1148.93 370.688 1132.54 358.4Q1116.16 346.112 1103.87 327.68Q1091.58 309.248 1079.3 286.72Q1062.91 256 1040.38 228.352Q1017.86 200.704 991.232 178.176Q964.608 155.648 932.864 141.312Q901.12 126.976 864.256 129.024L126.976 129.024Q100.352 129.024 77.824 138.24Q55.296 147.456 37.888 164.864Q20.48 182.272 10.24 205.824Q0 229.376 0 256L0 1536Q0 1562.62 10.24 1586.18Q20.48 1609.73 37.888 1627.14Q55.296 1644.54 77.824 1653.76Q100.352 1662.98 129.024 1662.98L1024 1662.98L1024 1536L129.024 1536L129.024 638.976L864.256 638.976Q911.36 638.976 940.032 629.76Q968.704 620.544 989.184 607.232Q1009.66 593.92 1027.07 576.512Q1044.48 559.104 1068.03 544.768Q1091.58 530.432 1125.38 521.216Q1159.17 512 1216.51 512L1921.02 512L1921.02 1406.98L2048 1406.98ZM909.312 502.784Q890.88 512 864.256 512L129.024 512L129.024 256L864.256 256Q888.832 256 910.336 276.48Q931.84 296.96 950.272 323.584Q968.704 350.208 985.088 378.88Q1001.47 407.552 1017.86 425.984Q995.328 436.224 977.92 452.608Q960.512 468.992 944.128 481.28Q927.744 493.568 909.312 502.784ZM1665.02 1536L1665.02 1150.98L1536 1150.98L1536 1536L1153.02 1536L1153.02 1662.98L1536 1662.98L1536 2048L1665.02 2048L1665.02 1662.98L2048 1662.98L2048 1536L1665.02 1536Z"/></svg>