<svg xmlns="http://www.w3.org/2000/svg" viewBox="0 0 2048 2048"><path d="M1891.33 20.48Q1845.25 0 1792 0L256 0Q202.752 0 156.672 20.48Q110.592 40.96 75.776 75.776Q40.96 110.592 20.48 156.672Q0 202.752 0 256L0 1280Q0 1333.25 20.48 1379.33Q40.96 1425.41 75.776 1460.22Q110.592 1495.04 156.672 1515.52Q202.752 1536 256 1536L768 1536L1280 2048L1280 1536L1792 1536Q1845.25 1536 1891.33 1515.52Q1937.41 1495.04 1972.22 1460.22Q2007.04 1425.41 2027.52 1379.33Q2048 1333.25 2048 1280L2048 256Q2048 202.752 2027.52 156.672Q2007.04 110.592 1972.22 75.776Q1937.41 40.96 1891.33 20.48ZM1921.02 256L1921.02 1280Q1921.02 1306.62 1910.78 1330.18Q1900.54 1353.73 1883.14 1371.14Q1865.73 1388.54 1842.18 1398.78Q1818.62 1409.02 1792 1406.98L1153.02 1406.98L1153.02 1738.75L987.136 1572.86Q905.216 1488.9 821.248 1406.98L256 1406.98Q229.376 1406.98 205.824 1397.76Q182.272 1388.54 164.864 1371.14Q147.456 1353.73 138.24 1330.18Q129.024 1306.62 129.024 1280L129.024 256Q126.976 229.376 137.216 205.824Q147.456 182.272 164.864 164.864Q182.272 147.456 205.824 137.216Q229.376 126.976 256 129.024L1792 129.024Q1818.62 126.976 1842.18 137.216Q1865.73 147.456 1883.14 164.864Q1900.54 182.272 1910.78 205.824Q1921.02 229.376 1921.02 256ZM937.984 894.976L1110.02 894.976L1148.93 256L899.072 256L937.984 894.976ZM1074.18 1034.24Q1050.62 1024 1024 1024Q997.376 1024 973.824 1034.24Q950.272 1044.48 932.864 1061.89Q915.456 1079.3 906.24 1101.82Q897.024 1124.35 896 1152Q894.976 1179.65 905.216 1202.18Q915.456 1224.7 932.864 1242.11Q950.272 1259.52 973.824 1269.76Q997.376 1280 1024 1280Q1050.62 1280 1074.18 1269.76Q1097.73 1259.52 1115.14 1242.11Q1132.54 1224.7 1142.78 1202.18Q1153.02 1179.65 1152 1152Q1150.98 1124.35 1141.76 1101.82Q1132.54 1079.3 1115.14 1061.89Q1097.73 1044.48 1074.18 1034.24Z"/></svg>