<svg xmlns="http://www.w3.org/2000/svg" viewBox="0 0 2048 2048"><path d="M2003.82 1599.49L2003.82 63.488L0 63.488L0 1599.49L133.968 1599.49L133.968 1984.51L934.926 1984.51L934.926 1695.74Q934.926 1656.83 954.878 1628.16Q974.831 1599.49 1001.91 1599.49Q1028.99 1599.49 1048.94 1628.16Q1068.89 1656.83 1068.89 1695.74L1068.89 1984.51L1871.28 1984.51L1871.28 1599.49L2003.82 1599.49ZM133.968 256L1871.28 256L1871.28 1406.98L133.968 1406.98L133.968 256ZM267.936 1216.51L1737.31 1216.51L1737.31 448.512L267.936 448.512L267.936 1216.51ZM534.447 1024L400.479 1024L400.479 638.976L534.447 638.976L534.447 1024ZM668.415 1024L668.415 638.976L802.383 638.976L802.383 1024L668.415 1024ZM934.926 1024L934.926 638.976L1068.89 638.976L1068.89 1024L934.926 1024ZM1202.86 1024L1202.86 638.976L1336.83 638.976L1336.83 1024L1202.86 1024ZM1469.37 638.976L1603.34 638.976L1603.34 1024L1469.37 1024L1469.37 638.976ZM802.383 1695.74L802.383 1792L267.936 1792L267.936 1599.49L813.784 1599.49Q802.383 1648.64 802.383 1695.74ZM1191.46 1599.49L1737.31 1599.49L1737.31 1792L1202.86 1792L1202.86 1693.7Q1202.86 1648.64 1191.46 1599.49Z"/></svg>