<svg xmlns="http://www.w3.org/2000/svg" viewBox="0 0 2048 2048"><path d="M38.912 768L0 768L0 1280L83.968 1277.95L122.88 1280L518.144 1351.68Q512 1380.35 512 1406.98Q512 1474.56 536.576 1532.93Q561.152 1591.3 605.184 1634.3Q649.216 1677.31 707.584 1702.91Q765.952 1728.51 831.488 1728.51Q892.928 1728.51 943.104 1708.03Q993.28 1687.55 1036.29 1652.74Q1079.3 1617.92 1107.97 1568.77Q1136.64 1519.62 1146.88 1462.27L1908.74 1599.49Q1916.93 1601.54 1929.22 1601.54L2048 1599.49L2048 448.512L1957.89 446.464L1935.36 446.464Q1925.12 446.464 1921.02 448.512L122.88 768Q114.688 770.048 106.496 770.048L38.912 768ZM129.024 894.976L1921.02 577.536L1921.02 1470.46L139.264 1153.02Q135.168 1150.98 129.024 1150.98L129.024 894.976ZM899.072 1588.22Q866.304 1599.49 831.488 1599.49Q792.576 1599.49 757.76 1585.15Q722.944 1570.82 696.32 1544.19Q669.696 1517.57 654.336 1482.75Q638.976 1447.94 638.976 1409.02L643.072 1372.16L1021.95 1439.74Q1015.81 1474.56 998.4 1504.26Q980.992 1533.95 956.416 1555.46Q931.84 1576.96 899.072 1588.22Z"/></svg>