<svg xmlns="http://www.w3.org/2000/svg" viewBox="0 0 2048 2048"><path d="M1005.57 1722.37L1011.71 1732.61L1024 1792L897.024 1792L897.024 1918.98L768 1918.98L768 1792L641.024 1792L641.024 1918.98L512 1918.98L512 1792L385.024 1792L385.024 1918.98L256 1918.98L256 1792L129.024 1792L129.024 1662.98L0 1662.98L0 1536L129.024 1536L129.024 1406.98L0 1406.98L0 1280L129.024 1280L129.024 1150.98L0 1150.98L0 1024L129.024 1024L129.024 894.976L0 894.976L0 768L129.024 768L129.024 638.976L0 638.976L0 512L129.024 512L129.024 382.976L0 382.976L0 256L129.024 256L129.024 126.976L256 126.976L256 0L385.024 0L385.024 126.976L512 126.976L512 0L641.024 0L641.024 126.976L768 126.976L768 0L897.024 0L897.024 126.976L1024 126.976L1024 0L1153.02 0L1153.02 126.976L1280 126.976L1280 0L1409.02 0L1409.02 126.976L1536 126.976L1536 0L1665.02 0L1665.02 126.976L1792 126.976L1792 256L1921.02 256L1921.02 382.976L1792 382.976L1792 512L1921.02 512L1921.02 638.976L1792 638.976L1792 768L1921.02 768L1921.02 894.976L1792 894.976L1792 1024L1665.02 1024L1665.02 256L256 256L256 1662.98L972.8 1662.98L1005.57 1722.37ZM768 768L1024 768L641.024 1280L641.024 894.976L385.024 894.976L768 382.976L768 768ZM1955.84 1320.96L2019.33 1431.55L1728.51 1599.49L2019.33 1769.47L1955.84 1880.06L1665.02 1710.08L1665.02 2048L1536 2048L1536 1710.08L1243.14 1880.06L1179.65 1769.47L1472.51 1599.49L1179.65 1431.55L1243.14 1320.96L1536 1488.9L1536 1150.98L1665.02 1150.98L1665.02 1488.9L1955.84 1320.96Z"/></svg>