<svg xmlns="http://www.w3.org/2000/svg" viewBox="0 0 2048 2048"><path d="M0 0L897.024 0L897.024 894.976L0 894.976L0 0ZM1599.49 0L1961.98 362.496L1871.87 452.608L1665.02 243.712L1665.02 894.976L1536 894.976L1536 243.712L1329.15 452.608L1236.99 362.496L1599.49 0ZM768 768L768 126.976L129.024 126.976L129.024 768L768 768ZM448.512 2048L86.016 1685.5L176.128 1595.39L385.024 1804.29L385.024 1150.98L512 1150.98L512 1804.29L718.848 1595.39L811.008 1685.5L448.512 2048ZM1153.02 1150.98L2048 1150.98L2048 2048L1153.02 2048L1153.02 1150.98ZM1921.02 1918.98L1921.02 1280L1280 1280L1280 1918.98L1921.02 1918.98Z"/></svg>